<svg width="1254" height="306" viewBox="0 0 1254 306" fill="none" xmlns="http://www.w3.org/2000/svg">
<path d="M144.328 107.985C128.605 125.851 91.8263 173.432 70.4957 220.836L64.8271 236.218L64.8761 266.394C64.6893 268.292 67.6231 275.157 80.852 287.434C83.1397 293.807 108.774 302.191 121.305 305.587L162.868 305.52C170.458 304.938 191.558 302.171 215.232 295.756C220.541 292.901 235.709 283.425 253.904 268.364C263.574 263.225 263.929 248.041 263.534 238.743C264.285 233.238 263.958 218.929 256.649 205.731C248.437 197.546 253.18 173.094 256.578 161.892C258.842 153.727 265.759 136.028 275.315 130.547C284.871 125.066 300.516 105.455 307.143 96.3343L330.447 71.8145L330.411 49.6099L324.13 38.233C317.863 36.1556 296.905 32.0144 263.199 32.069C244.525 32.0993 225.826 40.4801 218.81 44.6667L144.328 107.985Z" fill="#E6C2C2"/>
<path d="M9.33049 176.609C-0.337317 183.457 46.2096 214.316 69.1897 224.337C81.1257 211.792 103.286 184.655 96.4408 176.468C87.884 166.233 206.135 59.0035 215.814 58.9878C225.493 58.9721 215.774 34.5058 215.761 26.5349C215.748 18.564 194.091 4.93476 170.175 2.69615C146.258 0.457537 126.974 46.0368 121.302 59.1411C116.764 69.6245 56.8241 89.0417 27.4213 97.4398C12.4577 115.494 -12.1095 156.602 9.33049 176.609Z" fill="#B79393"/>
<path d="M110.785 143.422C99.3985 143.441 82.2003 187.878 75.0245 210.094C82.8068 234.222 147.316 199.919 178.597 179.751C200.349 134.547 237.363 44.9473 211.406 48.1778C185.449 51.4082 133.51 113.02 110.785 143.422Z" fill="#DCCCCD"/>
<path d="M361.672 37.3014L366.617 37.2934C375.587 37.2789 382.491 39.6443 387.329 44.3898C392.243 49.1352 394.708 55.9162 394.722 64.7329C394.73 69.7929 393.511 74.4332 391.064 78.6538C388.695 82.8743 385.442 86.2146 381.306 88.6747C377.169 91.058 372.61 92.2538 367.626 92.2619L366.821 92.2632L396.542 123.495L391.597 123.503L365.448 96.1754L365.492 123.545L361.812 123.551L361.672 37.3014ZM367.506 88.927C371.876 88.92 375.861 87.8402 379.461 85.6876C383.061 83.5351 385.893 80.6555 387.957 77.0489C390.021 73.3655 391.049 69.3005 391.042 64.8538C391.029 57.1105 388.911 51.1339 384.688 46.9241C380.541 42.7142 374.596 40.6155 366.853 40.628L365.358 40.6305L365.436 88.9304L367.506 88.927ZM411.859 59.8751C410.786 59.8768 409.827 59.495 408.982 58.7297C408.214 57.9643 407.829 57.0066 407.827 55.8566C407.826 54.7833 408.207 53.8626 408.973 53.0947C409.815 52.3267 410.773 51.9418 411.846 51.9401C412.919 51.9383 413.84 52.3202 414.608 53.0856C415.452 53.8509 415.876 54.7702 415.877 55.8435C415.879 56.9935 415.459 57.9526 414.617 58.7206C413.852 59.4885 412.932 59.8733 411.859 59.8751ZM410.038 71.723L413.718 71.7171L413.802 123.467L410.122 123.473L410.038 71.723ZM455.331 124.895C450.348 124.903 445.746 123.722 441.525 121.352C437.381 118.982 434.079 115.729 431.619 111.593C429.159 107.457 427.925 102.782 427.917 97.5691C427.909 92.7391 429.128 88.2904 431.575 84.2231C434.022 80.0792 437.351 76.7771 441.564 74.3169C445.853 71.8566 450.566 70.6223 455.703 70.614C459.996 70.607 463.677 71.291 466.746 72.6661C469.815 74.0411 472.809 76.1829 475.727 79.0915L475.737 85.3015C473.201 81.5489 470.359 78.7169 467.213 76.8053C464.143 74.817 460.308 73.8265 455.708 73.834C451.492 73.8408 447.507 74.9589 443.754 77.1884C440.077 79.341 437.13 82.2591 434.913 85.9427C432.695 89.6263 431.59 93.5764 431.597 97.7931C431.605 102.393 432.685 106.531 434.837 110.208C436.99 113.808 439.869 116.64 443.476 118.704C447.159 120.691 451.109 121.681 455.326 121.675C463.912 121.661 470.73 117.778 475.777 110.026L475.787 116.236C473.032 119.154 469.969 121.344 466.598 122.806C463.303 124.192 459.548 124.888 455.331 124.895ZM485.838 37.1L489.518 37.0941L489.591 82.289C491.196 78.8364 493.913 75.9953 497.742 73.7658C501.649 71.4595 505.595 70.3031 509.582 70.2966C516.865 70.2848 522.465 72.269 526.382 76.2493C530.375 80.2295 532.377 85.8613 532.389 93.1446L532.438 123.275L528.758 123.281L528.709 93.1506C528.699 86.8639 527.004 82.0367 523.625 78.6688C520.323 75.2242 515.644 73.5068 509.587 73.5166C505.907 73.5225 502.535 74.4097 499.471 76.178C496.407 77.8696 493.996 80.2502 492.238 83.3197C490.479 86.3126 489.603 89.6107 489.609 93.214L489.658 123.344L485.978 123.35L485.838 37.1ZM571.341 124.476C566.435 124.484 561.871 123.265 557.65 120.819C553.43 118.372 550.089 115.081 547.629 110.945C545.169 106.732 543.935 102.211 543.927 97.3809C543.919 92.5509 545.139 88.0639 547.585 83.92C550.032 79.6993 553.362 76.3589 557.574 73.8988C561.787 71.4386 566.347 70.2045 571.253 70.1966C576.237 70.1885 580.954 71.5225 585.405 74.1986C589.856 76.7981 592.966 80.2047 594.736 84.4185L594.715 71.4235L598.395 71.4175L598.479 123.167L594.799 123.173L594.778 110.293C592.715 114.59 589.501 118.045 585.135 120.659C580.846 123.196 576.248 124.469 571.341 124.476ZM571.566 121.256C575.783 121.249 579.691 120.17 583.291 118.017C586.891 115.788 589.722 112.87 591.787 109.263C593.927 105.58 594.994 101.591 594.987 97.2981C594.98 93.0814 593.901 89.1349 591.748 85.4583C589.595 81.7818 586.716 78.8732 583.109 76.7323C579.502 74.5149 575.59 73.4095 571.373 73.4164C567.157 73.4232 563.21 74.5413 559.534 76.7706C555.934 78.9998 553.026 81.9561 550.808 85.6397C548.668 89.3232 547.601 93.2733 547.607 97.4899C547.614 101.707 548.694 105.653 550.847 109.33C553.076 112.929 556.032 115.838 559.716 118.055C563.399 120.196 567.349 121.263 571.566 121.256ZM612.91 71.394L616.59 71.388L616.61 83.348C618.137 79.5889 620.356 76.6336 623.265 74.4822C626.252 72.3307 629.623 71.2519 633.38 71.2458C635.757 71.2419 638.173 71.7364 640.628 72.729L640.634 76.984C638.408 75.301 635.915 74.4617 633.155 74.4662C630.395 74.4706 627.713 75.3183 625.109 77.0092C622.582 78.7 620.516 80.965 618.911 83.8043C617.382 86.6434 616.62 89.673 616.625 92.893L616.674 123.138L612.994 123.144L612.91 71.394ZM670.731 124.315C665.747 124.323 661.145 123.104 656.925 120.658C652.781 118.211 649.479 114.92 647.019 110.784C644.559 106.648 643.325 102.126 643.317 97.2197C643.309 92.3131 644.528 87.7877 646.975 83.6438C649.421 79.4998 652.713 76.1978 656.849 73.7377C661.061 71.2776 665.659 70.0434 670.643 70.0354C675.473 70.0275 680.075 71.3234 684.449 73.923C688.823 76.4459 692.049 79.7757 694.125 83.9123L694.049 36.7623L697.729 36.7564L697.869 123.006L694.189 123.012L694.168 110.477C691.875 114.621 688.545 117.961 684.18 120.498C679.89 123.035 675.407 124.308 670.731 124.315ZM670.611 121.095C674.827 121.089 678.735 120.009 682.335 117.856C686.012 115.627 688.92 112.709 691.061 109.102C693.278 105.419 694.384 101.469 694.377 97.2519C694.37 93.0352 693.252 89.0887 691.023 85.4123C688.87 81.7358 685.952 78.7889 682.268 76.5715C678.661 74.354 674.75 73.2487 670.533 73.2555C666.316 73.2624 662.408 74.3804 658.808 76.6096C655.209 78.7621 652.338 81.6801 650.198 85.3635C648.057 89.047 646.99 92.9971 646.997 97.2137C647.004 101.507 648.045 105.492 650.121 109.169C652.274 112.769 655.153 115.677 658.76 117.895C662.444 120.035 666.394 121.102 670.611 121.095ZM724.921 124.227C721.241 124.233 717.982 123.625 715.143 122.403C712.304 121.105 710.27 119.459 709.04 117.468L709.03 111.373C710.492 114.667 712.489 117.118 715.022 118.723C717.554 120.253 720.776 121.014 724.686 121.008C728.442 121.002 731.469 119.847 733.765 117.543C736.061 115.163 737.206 112.132 737.2 108.452C737.195 105.309 736.54 102.895 735.234 101.211C733.927 99.4494 731.816 97.6895 728.9 95.9309L724.526 93.408C721.379 91.4964 719 90.0053 717.389 88.9346C715.853 87.7871 714.625 86.524 713.702 85.1455C712.78 83.6904 712.317 82.0044 712.314 80.0878C712.309 77.0211 713.379 74.5661 715.522 72.7226C717.666 70.8791 720.463 69.9546 723.913 69.949C728.129 69.9421 731.658 70.8947 734.497 72.8068L734.506 77.8668C732.124 74.7273 728.71 73.1612 724.263 73.1684C721.81 73.1724 719.817 73.7889 718.286 75.0181C716.755 76.2472 715.991 77.8202 715.994 79.7368C715.996 81.4235 716.459 82.9177 717.381 84.2196C718.303 85.4447 719.57 86.5927 721.182 87.6634C722.87 88.734 725.633 90.3395 729.469 92.48C733.383 94.697 736.262 96.9923 738.106 99.366C739.949 101.663 740.874 104.69 740.88 108.446C740.888 113.2 739.323 117.036 736.184 119.954C733.122 122.796 729.368 124.22 724.921 124.227ZM779.333 36.624L783.013 36.6181C789.07 36.6082 793.518 38.0194 796.36 40.8514C799.201 43.6068 800.626 47.7062 800.635 53.1495C800.64 56.2928 799.725 59.3227 797.889 62.239C796.054 65.0786 793.834 66.9989 791.229 67.9998C797.824 69.0624 802.927 71.8141 806.537 76.255C810.148 80.6958 811.959 86.5195 811.971 93.7262C811.98 99.4762 810.723 104.577 808.2 109.027C805.677 113.401 802.195 116.819 797.752 119.279C793.386 121.663 788.519 122.859 783.153 122.868L779.473 122.874L779.333 36.624ZM783.982 66.9765C787.662 66.9706 790.765 65.6239 793.291 62.9364C795.816 60.249 797.076 56.9503 797.07 53.0403C797.062 48.6703 795.984 45.3754 793.833 43.1555C791.76 40.9355 788.461 39.8292 783.938 39.8366L783.018 39.8381L783.062 66.978L783.982 66.9765ZM784.068 119.646C788.591 119.639 792.691 118.559 796.367 116.407C800.044 114.177 802.952 111.106 805.092 107.192C807.233 103.279 808.299 98.8688 808.291 93.9621C808.278 86.0655 806.16 80.1272 801.937 76.1474C797.79 72.0908 791.807 70.0688 783.987 70.0815L783.067 70.083L783.148 119.648L784.068 119.646ZM843.681 123.805C840.078 123.811 836.78 123.011 833.787 121.406C830.795 119.724 828.414 117.39 826.646 114.402C824.878 111.415 823.991 108.082 823.985 104.402L823.875 36.5518L827.555 36.5458L827.665 104.396C827.67 107.462 828.364 110.221 829.748 112.672C831.209 115.123 833.167 117.075 835.623 118.528C838.078 119.904 840.763 120.59 843.676 120.585L843.681 123.805ZM876.704 124.556C871.49 124.565 866.773 123.307 862.552 120.784C858.332 118.184 855.029 114.778 852.646 110.565C850.262 106.276 849.066 101.639 849.058 96.656C849.05 91.7494 850.231 87.1858 852.601 82.9653C855.048 78.7446 858.339 75.4043 862.475 72.9442C866.687 70.4074 871.362 69.1348 876.499 69.1265C881.559 69.1183 886.161 70.3758 890.305 72.8991C894.525 75.3456 897.828 78.6752 900.211 82.888C902.595 87.1008 903.79 91.6606 903.798 96.5672C903.807 101.704 902.664 106.421 900.371 110.718C898.078 114.938 894.864 118.317 890.728 120.853C886.668 123.313 881.994 124.548 876.704 124.556ZM876.698 121.336C881.068 121.329 885.053 120.211 888.653 117.982C892.253 115.753 895.046 112.796 897.034 109.113C899.098 105.353 900.126 101.25 900.119 96.8032C900.112 92.4332 899.07 88.3716 896.994 84.6183C894.918 80.865 892.076 77.8796 888.469 75.6621C884.862 73.4446 880.874 72.3394 876.504 72.3465C872.134 72.3536 868.111 73.5101 864.435 75.8161C860.835 78.0452 857.965 81.0399 855.824 84.8C853.76 88.5601 852.732 92.6251 852.739 96.9951C852.746 101.365 853.788 105.427 855.864 109.18C858.016 112.857 860.896 115.804 864.503 118.021C868.187 120.238 872.252 121.343 876.698 121.336ZM940.312 146.533C935.942 146.54 931.685 145.55 927.542 143.564C923.399 141.577 920.175 138.976 917.869 135.759L917.861 130.469C919.86 134.146 922.97 137.208 927.191 139.654C931.488 142.101 935.86 143.32 940.307 143.313C947.667 143.301 953.336 141.107 957.316 136.73C961.296 132.431 963.279 126.102 963.265 117.746L963.253 110.041C961.189 114.184 957.937 117.563 953.494 120.177C949.128 122.714 944.53 123.986 939.7 123.994C934.794 124.002 930.23 122.783 926.009 120.336C921.789 117.89 918.448 114.599 915.988 110.462C913.528 106.25 912.294 101.728 912.286 96.8985C912.279 92.0685 913.498 87.5815 915.945 83.4375C918.391 79.2169 921.721 75.8765 925.933 73.4163C930.146 70.9561 934.706 69.7221 939.612 69.7141C944.672 69.7059 949.351 70.9633 953.648 73.4864C957.946 76.0094 961.133 79.4159 963.21 83.7059L963.189 70.8259L966.869 70.8199L966.945 117.74C966.961 127.17 964.672 134.304 960.08 139.141C955.565 144.055 948.975 146.519 940.312 146.533ZM939.925 120.774C944.142 120.767 948.05 119.687 951.65 117.535C955.25 115.305 958.082 112.388 960.146 108.781C962.286 105.097 963.353 101.109 963.346 96.8157C963.339 92.5223 962.26 88.5757 960.107 84.9759C958.031 81.2993 955.19 78.3905 951.583 76.2497C947.976 74.0322 944.064 72.9269 939.848 72.9337C935.554 72.9407 931.569 74.0588 927.893 76.2881C924.293 78.4406 921.384 81.3587 919.167 85.0423C917.026 88.6491 915.959 92.5992 915.966 96.8925C915.973 101.186 917.053 105.171 919.206 108.847C921.435 112.447 924.353 115.356 927.96 117.573C931.643 119.714 935.632 120.781 939.925 120.774Z" fill="black"/>
<path d="M375.195 222.827L361.173 222.849L361.197 237.606L356.791 237.613L356.736 204.199L377.437 204.165L377.442 207.791L361.148 207.818L361.167 219.246L375.189 219.224L375.195 222.827ZM380.454 224.929C380.45 222.497 380.92 220.308 381.866 218.364C382.827 216.419 384.155 214.917 385.852 213.859C387.564 212.801 389.513 212.27 391.701 212.266C395.082 212.261 397.815 213.427 399.9 215.764C402 218.101 403.053 221.213 403.059 225.099L403.059 225.398C403.063 227.815 402.6 229.988 401.67 231.917C400.755 233.831 399.434 235.325 397.707 236.399C395.995 237.473 394.023 238.011 391.789 238.015C388.423 238.02 385.69 236.854 383.59 234.517C381.506 232.18 380.46 229.083 380.454 225.228L380.454 224.929ZM384.723 225.427C384.727 228.181 385.366 230.391 386.639 232.057C387.926 233.722 389.641 234.553 391.783 234.55C393.94 234.546 395.653 233.702 396.92 232.017C398.187 230.317 398.818 227.944 398.813 224.9C398.809 222.176 398.155 219.974 396.852 218.293C395.564 216.597 393.849 215.751 391.707 215.754C389.611 215.758 387.922 216.594 386.639 218.264C385.357 219.934 384.718 222.322 384.723 225.427ZM413.016 237.522L408.77 237.528L408.713 202.278L412.959 202.272L413.016 237.522ZM424.445 237.503L420.199 237.51L420.142 202.26L424.388 202.253L424.445 237.503ZM430.116 224.849C430.112 222.416 430.582 220.228 431.528 218.283C432.489 216.338 433.817 214.837 435.514 213.778C437.226 212.72 439.175 212.189 441.363 212.186C444.744 212.18 447.477 213.346 449.562 215.683C451.662 218.021 452.715 221.133 452.721 225.019L452.721 225.317C452.725 227.734 452.262 229.908 451.332 231.837C450.417 233.751 449.096 235.245 447.369 236.318C445.657 237.392 443.685 237.931 441.451 237.934C438.085 237.94 435.352 236.774 433.252 234.436C431.168 232.099 430.122 229.003 430.116 225.147L430.116 224.849ZM434.385 225.347C434.389 228.101 435.028 230.31 436.301 231.976C437.588 233.642 439.303 234.473 441.445 234.469C443.602 234.466 445.315 233.621 446.582 231.936C447.849 230.236 448.48 227.864 448.475 224.819C448.471 222.096 447.817 219.894 446.514 218.213C445.226 216.517 443.511 215.67 441.369 215.674C439.273 215.677 437.584 216.514 436.301 218.183C435.019 219.853 434.38 222.241 434.385 225.347ZM480.041 231.561L484.784 212.574L489.029 212.567L481.841 237.41L478.398 237.416L472.332 218.607L466.488 237.435L463.045 237.44L455.799 212.621L460.022 212.614L464.94 231.195L470.693 212.597L474.112 212.591L480.041 231.561ZM509.018 212.535L509.137 215.288C510.955 213.144 513.408 212.069 516.499 212.064C519.972 212.058 522.338 213.385 523.597 216.045C524.421 214.851 525.49 213.885 526.805 213.148C528.135 212.412 529.702 212.042 531.508 212.039C536.954 212.03 539.728 214.91 539.829 220.678L539.856 237.316L535.611 237.323L535.584 220.937C535.581 219.162 535.174 217.84 534.361 216.969C533.549 216.083 532.187 215.641 530.274 215.644C528.698 215.647 527.391 216.123 526.352 217.074C525.313 218.009 524.711 219.272 524.545 220.863L524.572 237.341L520.304 237.348L520.277 221.077C520.271 217.466 518.501 215.663 514.967 215.669C512.183 215.674 510.28 216.862 509.259 219.236L509.288 237.365L505.042 237.372L505.002 212.541L509.018 212.535ZM554.396 231.073L560.149 212.452L564.693 212.444L554.756 241.124C553.218 245.258 550.766 247.327 547.4 247.332L546.597 247.265L545.013 246.969L545.007 243.527L546.155 243.617C547.593 243.614 548.709 243.322 549.504 242.739C550.314 242.156 550.977 241.092 551.495 239.546L552.432 237.02L543.534 212.479L548.169 212.471L554.396 231.073ZM588.055 226.704L588.705 231.109L589.64 227.137L596.211 203.81L599.929 203.804L606.415 227.11L607.34 231.148L608.044 226.649L613.194 203.783L617.623 203.776L609.576 237.203L605.56 237.209L598.636 212.871L598.104 210.325L597.58 212.873L590.482 237.234L586.466 237.24L578.334 203.839L582.74 203.832L588.055 226.704ZM631.493 237.626C628.127 237.632 625.387 236.535 623.272 234.335C621.157 232.12 620.097 229.161 620.091 225.459L620.089 224.678C620.085 222.215 620.548 220.019 621.478 218.09C622.424 216.145 623.737 214.628 625.418 213.539C627.115 212.435 628.95 211.881 630.924 211.878C634.152 211.873 636.663 212.932 638.456 215.056C640.249 217.18 641.149 220.223 641.156 224.185L641.159 225.952L624.337 225.98C624.402 228.427 625.117 230.408 626.481 231.92C627.86 233.417 629.606 234.164 631.717 234.16C633.216 234.158 634.486 233.85 635.525 233.236C636.564 232.623 637.473 231.81 638.252 230.799L640.849 232.815C638.773 236.016 635.655 237.619 631.493 237.626ZM630.929 215.366C629.216 215.369 627.778 215.999 626.618 217.255C625.457 218.496 624.741 220.242 624.469 222.491L636.907 222.471L636.907 222.15C636.781 219.993 636.197 218.326 635.155 217.15C634.112 215.958 632.704 215.363 630.929 215.366ZM667.113 224.969C667.119 228.764 666.252 231.817 664.511 234.13C662.771 236.428 660.432 237.579 657.495 237.584C654.358 237.589 651.931 236.484 650.214 234.268L650.012 237.137L646.111 237.144L646.054 201.894L650.299 201.887L650.321 215.037C652.031 212.907 654.393 211.84 657.407 211.835C660.421 211.83 662.786 212.966 664.504 215.243C666.236 217.52 667.106 220.64 667.112 224.602L667.113 224.969ZM662.866 224.494C662.862 221.603 662.3 219.37 661.18 217.796C660.061 216.222 658.453 215.436 656.357 215.44C653.557 215.444 651.547 216.748 650.328 219.351L650.345 230.091C651.65 232.69 653.679 233.987 656.433 233.983C658.468 233.979 660.05 233.189 661.18 231.611C662.309 230.034 662.872 227.661 662.866 224.494ZM684.826 237.081L684.772 203.667L694.204 203.651C697.111 203.647 699.682 204.285 701.918 205.567C704.154 206.848 705.878 208.674 707.091 211.043C708.319 213.413 708.943 216.135 708.963 219.21L708.966 221.344C708.971 224.496 708.364 227.259 707.144 229.632C705.939 232.005 704.205 233.829 701.943 235.102C699.696 236.376 697.073 237.03 694.075 237.066L684.826 237.081ZM689.184 207.286L689.227 233.471L693.862 233.463C697.259 233.458 699.896 232.398 701.775 230.283C703.668 228.169 704.612 225.161 704.606 221.26L704.603 219.309C704.596 215.515 703.697 212.571 701.903 210.478C700.125 208.369 697.599 207.302 694.325 207.277L689.184 207.286ZM725.309 237.474C721.944 237.479 719.203 236.382 717.088 234.183C714.973 231.968 713.913 229.009 713.907 225.306L713.906 224.526C713.902 222.063 714.365 219.867 715.295 217.938C716.24 215.993 717.553 214.476 719.235 213.387C720.931 212.283 722.766 211.729 724.74 211.726C727.968 211.721 730.479 212.78 732.272 214.904C734.066 217.027 734.966 220.07 734.972 224.033L734.975 225.8L718.153 225.827C718.218 228.275 718.933 230.255 720.297 231.768C721.677 233.265 723.422 234.012 725.533 234.008C727.033 234.006 728.302 233.698 729.341 233.084C730.381 232.471 731.29 231.658 732.068 230.647L734.665 232.662C732.589 235.863 729.471 237.467 725.309 237.474ZM724.745 215.214C723.032 215.217 721.595 215.847 720.434 217.103C719.273 218.344 718.557 220.089 718.285 222.339L730.724 222.319L730.723 221.997C730.597 219.84 730.013 218.174 728.971 216.997C727.929 215.806 726.52 215.211 724.745 215.214ZM747.79 231.218L753.909 212.138L758.246 212.131L749.382 236.976L746.147 236.981L737.11 212.165L741.448 212.158L747.79 231.218ZM772.355 237.398C768.989 237.403 766.249 236.306 764.134 234.106C762.019 231.891 760.959 228.933 760.953 225.23L760.951 224.45C760.947 221.987 761.41 219.79 762.341 217.861C763.286 215.917 764.599 214.4 766.281 213.311C767.977 212.207 769.812 211.653 771.786 211.65C775.014 211.644 777.525 212.704 779.318 214.827C781.112 216.951 782.012 219.994 782.018 223.957L782.021 225.724L765.199 225.751C765.264 228.199 765.979 230.179 767.343 231.691C768.722 233.189 770.468 233.935 772.579 233.932C774.078 233.93 775.348 233.622 776.387 233.008C777.427 232.394 778.336 231.582 779.114 230.571L781.711 232.586C779.635 235.787 776.517 237.391 772.355 237.398ZM771.791 215.138C770.078 215.141 768.641 215.77 767.48 217.027C766.319 218.268 765.603 220.013 765.331 222.263L777.77 222.242L777.769 221.921C777.643 219.764 777.059 218.097 776.017 216.921C774.975 215.729 773.566 215.135 771.791 215.138ZM791.586 236.908L787.34 236.914L787.283 201.664L791.529 201.658L791.586 236.908ZM797.257 224.253C797.253 221.821 797.724 219.632 798.669 217.688C799.63 215.743 800.958 214.241 802.655 213.183C804.367 212.125 806.317 211.594 808.504 211.59C811.886 211.585 814.618 212.751 816.703 215.088C818.803 217.425 819.856 220.537 819.862 224.423L819.863 224.722C819.866 227.139 819.403 229.312 818.473 231.241C817.558 233.155 816.237 234.649 814.51 235.723C812.798 236.797 810.826 237.335 808.592 237.339C805.226 237.344 802.493 236.178 800.393 233.841C798.309 231.504 797.264 228.407 797.257 224.552L797.257 224.253ZM801.526 224.751C801.531 227.505 802.169 229.715 803.442 231.381C804.73 233.046 806.444 233.877 808.586 233.874C810.744 233.87 812.456 233.026 813.723 231.341C814.99 229.641 815.621 227.268 815.616 224.224C815.612 221.5 814.958 219.298 813.655 217.617C812.367 215.921 810.652 215.075 808.51 215.078C806.414 215.082 804.725 215.918 803.442 217.588C802.16 219.258 801.521 221.645 801.526 224.751ZM846.162 224.679C846.168 228.458 845.309 231.504 843.584 233.817C841.859 236.13 839.52 237.289 836.567 237.294C833.553 237.298 831.18 236.346 829.448 234.436L829.468 246.393L825.222 246.4L825.166 212.022L829.045 212.016L829.256 214.769C830.981 212.625 833.381 211.55 836.456 211.545C839.44 211.54 841.798 212.661 843.53 214.907C845.278 217.153 846.155 220.28 846.162 224.289L846.162 224.679ZM841.916 224.204C841.911 221.404 841.311 219.194 840.115 217.574C838.919 215.955 837.281 215.146 835.2 215.15C832.63 215.154 830.704 216.297 829.422 218.579L829.442 230.443C830.715 232.706 832.66 233.835 835.276 233.83C837.311 233.827 838.924 233.021 840.115 231.413C841.321 229.789 841.921 227.386 841.916 224.204ZM855.551 211.973L855.67 214.726C857.487 212.582 859.941 211.507 863.032 211.502C866.505 211.496 868.871 212.823 870.129 215.483C870.954 214.289 872.023 213.323 873.338 212.586C874.667 211.85 876.235 211.48 878.04 211.477C883.487 211.468 886.261 214.348 886.362 220.116L886.389 236.754L882.143 236.761L882.117 220.375C882.114 218.6 881.706 217.277 880.894 216.407C880.082 215.521 878.719 215.079 876.807 215.082C875.231 215.085 873.924 215.561 872.885 216.512C871.846 217.446 871.244 218.71 871.078 220.301L871.105 236.779L866.836 236.786L866.81 220.515C866.804 216.904 865.034 215.101 861.5 215.107C858.715 215.112 856.812 216.3 855.791 218.674L855.821 236.803L851.575 236.81L851.535 211.979L855.551 211.973ZM903.12 237.186C899.754 237.191 897.013 236.094 894.899 233.894C892.784 231.679 891.723 228.721 891.717 225.018L891.716 224.238C891.712 221.775 892.175 219.578 893.105 217.649C894.051 215.705 895.364 214.188 897.045 213.099C898.741 211.994 900.576 211.441 902.55 211.438C905.778 211.432 908.289 212.492 910.083 214.615C911.876 216.739 912.776 219.782 912.782 223.745L912.785 225.512L895.964 225.539C896.029 227.987 896.743 229.967 898.108 231.479C899.487 232.977 901.232 233.723 903.344 233.72C904.843 233.718 906.112 233.409 907.152 232.796C908.191 232.182 909.1 231.37 909.879 230.359L912.475 232.374C910.4 235.575 907.281 237.179 903.12 237.186ZM902.556 214.926C900.842 214.929 899.405 215.558 898.244 216.815C897.084 218.056 896.367 219.801 896.096 222.051L908.534 222.03L908.534 221.709C908.408 219.552 907.824 217.885 906.781 216.709C905.739 215.517 904.33 214.923 902.556 214.926ZM921.713 211.865L921.856 214.986C923.749 212.596 926.226 211.399 929.286 211.394C934.534 211.386 937.185 214.342 937.241 220.263L937.267 236.671L933.022 236.678L932.995 220.247C932.977 218.457 932.562 217.134 931.749 216.278C930.952 215.423 929.705 214.996 928.007 214.999C926.63 215.001 925.422 215.371 924.382 216.107C923.343 216.843 922.534 217.808 921.954 219.002L921.983 236.696L917.738 236.703L917.697 211.872L921.713 211.865ZM949.38 205.808L949.39 211.821L954.026 211.813L954.031 215.095L949.395 215.102L949.42 230.501C949.422 231.496 949.63 232.245 950.044 232.749C950.458 233.238 951.162 233.482 952.156 233.48C952.646 233.479 953.319 233.386 954.175 233.201L954.181 236.644C953.065 236.952 951.979 237.106 950.923 237.108C949.026 237.111 947.594 236.54 946.629 235.394C945.663 234.248 945.178 232.619 945.175 230.508L945.15 215.109L940.629 215.116L940.624 211.835L945.145 211.827L945.135 205.815L949.38 205.808ZM985.315 203.179L989.744 203.172L989.782 226.833C989.787 230.03 988.828 232.533 986.903 234.342C984.993 236.15 982.44 237.057 979.242 237.062C975.922 237.068 973.335 236.223 971.481 234.527C969.627 232.832 968.698 230.455 968.693 227.395L973.099 227.388C973.102 229.3 973.625 230.791 974.667 231.86C975.724 232.929 977.247 233.462 979.236 233.459C981.057 233.456 982.525 232.88 983.64 231.731C984.77 230.582 985.341 228.974 985.353 226.909L985.315 203.179ZM995.492 223.932C995.488 221.499 995.959 219.311 996.904 217.366C997.865 215.421 999.193 213.92 1000.89 212.862C1002.6 211.803 1004.55 211.272 1006.74 211.269C1010.12 211.263 1012.85 212.429 1014.94 214.766C1017.04 217.104 1018.09 220.216 1018.1 224.102L1018.1 224.4C1018.1 226.817 1017.64 228.991 1016.71 230.92C1015.79 232.834 1014.47 234.328 1012.75 235.401C1011.03 236.475 1009.06 237.014 1006.83 237.017C1003.46 237.023 1000.73 235.857 998.629 233.52C996.544 231.182 995.499 228.086 995.492 224.23L995.492 223.932ZM999.761 224.43C999.766 227.184 1000.4 229.393 1001.68 231.059C1002.96 232.725 1004.68 233.556 1006.82 233.552C1008.98 233.549 1010.69 232.704 1011.96 231.019C1013.23 229.319 1013.86 226.947 1013.85 223.902C1013.85 221.179 1013.19 218.977 1011.89 217.296C1010.6 215.6 1008.89 214.753 1006.75 214.757C1004.65 214.76 1002.96 215.597 1001.68 217.266C1000.39 218.936 999.756 221.324 999.761 224.43ZM1038.77 234.051C1037.12 235.997 1034.7 236.972 1031.5 236.977C1028.85 236.982 1026.83 236.22 1025.44 234.692C1024.06 233.149 1023.36 230.871 1023.34 227.857L1023.31 211.701L1027.56 211.694L1027.58 227.735C1027.59 231.499 1029.12 233.378 1032.18 233.373C1035.42 233.368 1037.58 232.156 1038.65 229.737L1038.62 211.676L1042.86 211.669L1042.9 236.5L1038.86 236.506L1038.77 234.051ZM1061.34 215.449C1060.7 215.342 1060 215.29 1059.25 215.291C1056.47 215.296 1054.58 216.485 1053.59 218.858L1053.62 236.483L1049.37 236.489L1049.33 211.658L1053.46 211.652L1053.54 214.52C1054.93 212.3 1056.9 211.187 1059.45 211.183C1060.28 211.182 1060.91 211.288 1061.34 211.501L1061.34 215.449ZM1069.28 211.626L1069.42 214.747C1071.31 212.357 1073.79 211.16 1076.85 211.155C1082.1 211.146 1084.75 214.102 1084.8 220.023L1084.83 236.432L1080.59 236.439L1080.56 220.007C1080.54 218.217 1080.12 216.894 1079.31 216.039C1078.52 215.184 1077.27 214.757 1075.57 214.76C1074.19 214.762 1072.98 215.131 1071.95 215.867C1070.91 216.603 1070.1 217.569 1069.52 218.763L1069.55 236.457L1065.3 236.464L1065.26 211.633L1069.28 211.626ZM1101.54 236.864C1098.17 236.869 1095.43 235.772 1093.32 233.572C1091.2 231.357 1090.14 228.399 1090.14 224.696L1090.13 223.916C1090.13 221.453 1090.59 219.257 1091.52 217.327C1092.47 215.383 1093.78 213.866 1095.46 212.777C1097.16 211.673 1099 211.119 1100.97 211.116C1104.2 211.11 1106.71 212.17 1108.5 214.293C1110.29 216.417 1111.19 219.46 1111.2 223.423L1111.2 225.19L1094.38 225.217C1094.45 227.665 1095.16 229.645 1096.53 231.158C1097.91 232.655 1099.65 233.402 1101.76 233.398C1103.26 233.396 1104.53 233.088 1105.57 232.474C1106.61 231.86 1107.52 231.048 1108.3 230.037L1110.89 232.052C1108.82 235.253 1105.7 236.857 1101.54 236.864ZM1100.97 214.604C1099.26 214.607 1097.82 215.236 1096.66 216.493C1095.5 217.734 1094.79 219.479 1094.51 221.729L1106.95 221.709L1106.95 221.387C1106.83 219.23 1106.24 217.564 1105.2 216.387C1104.16 215.195 1102.75 214.601 1100.97 214.604ZM1123.95 230.149L1129.7 211.528L1134.25 211.521L1124.31 240.2C1122.77 244.334 1120.32 246.403 1116.95 246.409L1116.15 246.341L1114.57 246.045L1114.56 242.603L1115.71 242.693C1117.15 242.691 1118.26 242.398 1119.06 241.815C1119.87 241.233 1120.53 240.168 1121.05 238.622L1121.98 236.096L1113.09 211.555L1117.72 211.548L1123.95 230.149Z" fill="black"/>
<path d="M64.8177 235.649C62.5358 232.92 72.1946 220.454 77.3092 214.563L83.0368 235.619L91.0345 252.117C88.3935 261.99 82.5438 282.648 80.2723 286.296C78.0008 289.943 69.0554 274.168 64.8666 265.824L64.8177 235.649Z" fill="#E6C2C2"/>
<path d="M65.5 230C47.9 259.6 15.8333 199 2 165H33.5L65.5 181C72.8333 185 83.1 200.4 65.5 230Z" fill="#B79393"/>
</svg>
