<svg width="346" height="317" viewBox="0 0 346 317" fill="none" xmlns="http://www.w3.org/2000/svg">
<path d="M150.214 110.267C133.773 128.948 95.3152 178.702 73.0106 228.271L67.0833 244.355L67.1344 275.908C66.9392 277.893 70.0069 285.072 83.8398 297.909C86.232 304.573 113.037 313.34 126.14 316.891L169.6 316.82C177.537 316.212 199.6 313.319 224.355 306.611C229.907 303.625 245.767 293.717 264.792 277.969C274.904 272.594 275.276 256.718 274.863 246.994C275.647 241.238 275.306 226.276 267.663 212.476C259.076 203.917 264.035 178.349 267.588 166.635C269.956 158.097 277.189 139.59 287.182 133.859C297.174 128.127 313.533 107.621 320.463 98.0842L344.831 72.4448L344.793 49.2264L338.225 37.3302C331.672 35.1579 309.757 30.8275 274.512 30.8847C254.985 30.9164 235.432 39.6798 228.097 44.0576L150.214 110.267Z" fill="#E6C2C2"/>
<path d="M9.05279 182.024C-1.05642 189.184 47.6157 221.452 71.645 231.931C84.1259 218.813 107.298 190.437 100.14 181.876C91.1928 171.174 214.843 59.0489 224.964 59.0325C235.084 59.0161 224.922 33.4328 224.909 25.0979C224.895 16.7631 202.249 2.51158 177.24 0.170759C152.232 -2.17006 132.068 45.4902 126.137 59.1928C121.392 70.1548 58.7148 90.4585 27.9696 99.2401C12.3228 118.118 -13.3661 161.104 9.05279 182.024Z" fill="#B79393"/>
<path d="M115.14 147.322C103.233 147.342 85.2496 193.808 77.7462 217.038C85.8838 242.268 153.338 206.398 186.048 185.309C208.792 138.042 247.497 44.351 220.354 47.7289C193.212 51.1069 138.902 115.532 115.14 147.322Z" fill="#DCCCCD"/>
<path d="M67.0733 243.759C64.6873 240.906 74.787 227.871 80.1352 221.71L86.1243 243.728L94.4871 260.98C91.7256 271.304 85.6087 292.905 83.2336 296.719C80.8584 300.533 71.5045 284.037 67.1245 275.313L67.0733 243.759Z" fill="#E6C2C2"/>
<path d="M67.7869 237.853C49.3833 268.804 15.8526 205.437 1.38763 169.885H34.3258L67.7869 186.615C75.455 190.798 86.1904 206.901 67.7869 237.853Z" fill="#B79393"/>
</svg>
